<?xml version="1.0" encoding="utf-8"?>
<!-- Generator: Adobe Illustrator 22.1.0, SVG Export Plug-In . SVG Version: 6.00 Build 0)  -->
<svg version="1.1" id="Layer_1" xmlns="http://www.w3.org/2000/svg" xmlns:xlink="http://www.w3.org/1999/xlink" x="0px" y="0px"
	 viewBox="0 0 784.5 614" style="enable-background:new 0 0 784.5 614;" xml:space="preserve">
<style type="text/css">
	.st0{fill:#00CFC7;}
	.st1{fill:#FCBA12;}
	.st2{enable-background:new    ;}
	.st3{fill:#FFFFFF;}
	.st4{fill:#FF8200;}
	.st5{fill:#6B00E3;}
</style>
<path id="Path_5621" class="st0" d="M611.1,296.8c47.6,0,86.1-39,86.1-87s-38.6-87-86.1-87s-86.1,39-86.1,87
	S563.5,296.8,611.1,296.8"/>
<g id="Group_7800">
	<path id="Path_5622" class="st1" d="M434.1,127.1c33.3,0,60.3-27.3,60.3-60.9s-27-60.9-60.3-60.9s-60.3,27.3-60.3,60.9
		S400.8,127.1,434.1,127.1"/>
</g>
<g class="st2">
	<path class="st3" d="M570.6,191.5h-9l5.3-6.8h10.6v44.6h-6.9L570.6,191.5L570.6,191.5z"/>
	<path class="st3" d="M600.6,229.8c-9,0-15.3-6.6-15.3-15c0-4.6,2.1-7.7,5-11.5l14.9-18.6h8.7l-12.6,15.8c0.3,0,0.4,0,0.7,0
		c7,0,13.9,6,13.9,14.3C615.9,223.2,609.7,229.8,600.6,229.8z M600.6,223.2c4.8,0,8.3-3.7,8.3-8.3s-3.6-8.3-8.3-8.3
		s-8.3,3.8-8.3,8.3C592.3,219.5,595.8,223.2,600.6,223.2z"/>
</g>
<g class="st2">
	<path class="st3" d="M624.4,184.6h7.3v19.2l17.9-19.2h9.3l-19.8,21.3l24.2,23.3h-9.9l-21.7-20.8v20.8h-7.3V184.6z"/>
</g>
<g class="st2">
	<path class="st3" d="M427.1,85.6h-29.5v-2.5c0-9.8,8.1-14.1,14.6-18.9c4.6-3.3,7.5-5.8,7.5-10.4c0-4-2.7-6.8-7.1-6.8
		c-4.5,0-8,2.9-8,7.6h-7c0-8.6,6.6-14.4,15.1-14.4c7.5,0,14,4.5,14,13.4c0,7.1-3.3,10.9-9.9,15.6c-4,3-9,5.5-10.1,9.5h20.4V85.6z"/>
</g>
<g class="st2">
	<path class="st3" d="M435.9,41h7.3v19.2L461.1,41h9.3l-19.8,21.3l24.2,23.3h-9.9l-21.7-20.8v20.8h-7.3L435.9,41L435.9,41z"/>
</g>
<g class="st2">
	<path class="st0" d="M641.7,322.2h1.7v11.2h6.2v1.6h-7.9V322.2z"/>
	<path class="st0" d="M655,325.8c2.4,0,4.3,1.6,4.3,4.5c0,0.2,0,0.3,0,0.5h-7.4c0.1,1.7,1.3,3,3.1,3c1.4,0,2.3-0.6,2.8-1.6l1.2,0.8
		c-0.8,1.3-2.2,2.1-4.1,2.1c-2.8,0-4.7-2-4.7-4.7C650.3,327.9,652.3,325.8,655,325.8z M652,329.5h5.7c-0.2-1.5-1.4-2.4-2.8-2.4
		C653.6,327.2,652.3,328,652,329.5z"/>
	<path class="st0" d="M665.2,325.8c1.4,0,2.6,0.7,3.2,1.6V326h1.5v9h-1.5v-1.4c-0.6,0.9-1.8,1.6-3.2,1.6c-2.5,0-4.4-2.1-4.4-4.7
		S662.7,325.8,665.2,325.8z M665.4,327.2c-1.8,0-3.1,1.4-3.1,3.3c0,1.8,1.3,3.3,3.1,3.3s3.1-1.4,3.1-3.3
		C668.5,328.7,667.3,327.2,665.4,327.2z"/>
	<path class="st0" d="M676.5,325.8c1.4,0,2.6,0.7,3.2,1.6v-5.9h1.5V335h-1.5v-1.4c-0.6,0.9-1.8,1.6-3.2,1.6c-2.5,0-4.4-2.1-4.4-4.7
		S674,325.8,676.5,325.8z M676.8,327.2c-1.8,0-3.1,1.4-3.1,3.3c0,1.8,1.3,3.3,3.1,3.3s3.1-1.4,3.1-3.3
		C679.8,328.7,678.6,327.2,676.8,327.2z"/>
	<path class="st0" d="M686.9,335.2c-1.6,0-3-0.7-3.5-2.1l1.3-0.7c0.3,0.9,1.3,1.4,2.3,1.4c0.9,0,1.6-0.4,1.6-1.2
		c0-0.6-0.4-1-1.6-1.4l-0.9-0.3c-1.5-0.4-2.3-1.4-2.3-2.6c0-1.5,1.4-2.5,3.1-2.5c1.3,0,2.4,0.6,3,1.6l-1.2,0.8c-0.4-0.6-1-1-1.9-1
		c-0.8,0-1.5,0.4-1.5,1.1c0,0.5,0.3,1,1.3,1.3l1,0.3c1.5,0.5,2.4,1.3,2.4,2.6C690,334.2,688.7,335.2,686.9,335.2z"/>
	<path class="st0" d="M700.4,338.9c-1.9,0-3.5-0.8-4.2-1.8l1.1-1.1c0.7,0.9,1.8,1.5,3.2,1.5c1.5,0,3-1,3-3.1v-1
		c-0.6,0.9-1.8,1.6-3.1,1.6c-2.5,0-4.4-2-4.4-4.6s1.9-4.6,4.4-4.6c1.3,0,2.5,0.7,3.1,1.6V326h1.5v8.5
		C705,337.5,703,338.9,700.4,338.9z M700.5,333.5c1.8,0,3-1.3,3-3.2c0-1.8-1.2-3.2-3-3.2s-3,1.4-3,3.2
		C697.5,332.2,698.7,333.5,700.5,333.5z"/>
	<path class="st0" d="M711.9,325.8c2.4,0,4.3,1.6,4.3,4.5c0,0.2,0,0.3,0,0.5h-7.4c0.1,1.7,1.3,3,3.1,3c1.4,0,2.3-0.6,2.8-1.6
		l1.2,0.8c-0.8,1.3-2.2,2.1-4.1,2.1c-2.8,0-4.7-2-4.7-4.7C707.2,327.9,709.2,325.8,711.9,325.8z M708.9,329.5h5.7
		c-0.2-1.5-1.4-2.4-2.8-2.4C710.5,327.2,709.2,328,708.9,329.5z"/>
	<path class="st0" d="M718.4,326h1.5v1.4c0.6-1.1,1.7-1.6,2.9-1.6c2,0,3.4,1.4,3.4,3.6v5.5h-1.5v-5.3c0-1.5-0.9-2.4-2.1-2.4
		c-1.5,0-2.6,1.2-2.6,3.3v4.5h-1.5v-9H718.4z"/>
	<path class="st0" d="M733,325.8c2.4,0,4.3,1.6,4.3,4.5c0,0.2,0,0.3,0,0.5h-7.4c0.1,1.7,1.3,3,3.1,3c1.4,0,2.3-0.6,2.8-1.6l1.2,0.8
		c-0.8,1.3-2.2,2.1-4.1,2.1c-2.8,0-4.7-2-4.7-4.7C728.3,327.9,730.2,325.8,733,325.8z M729.9,329.5h5.7c-0.2-1.5-1.4-2.4-2.8-2.4
		C731.6,327.2,730.2,328,729.9,329.5z"/>
	<path class="st0" d="M739.4,326h1.5v1.7c0.4-1.2,1.5-1.8,2.5-1.8c0.2,0,0.5,0,0.7,0.1v1.6c-0.3-0.1-0.5-0.1-0.8-0.1
		c-1.1,0-2.4,1-2.4,3.1v4.5h-1.5V326z"/>
	<path class="st0" d="M749.4,325.8c1.4,0,2.6,0.7,3.2,1.6V326h1.5v9h-1.5v-1.4c-0.6,0.9-1.8,1.6-3.2,1.6c-2.5,0-4.4-2.1-4.4-4.7
		S746.9,325.8,749.4,325.8z M749.7,327.2c-1.8,0-3.1,1.4-3.1,3.3c0,1.8,1.3,3.3,3.1,3.3s3.1-1.4,3.1-3.3
		C752.7,328.7,751.5,327.2,749.7,327.2z"/>
	<path class="st0" d="M760.6,335.1c-1.6,0-2.8-0.9-2.8-2.8v-4.9h-1.9V326h1.9v-2.5h1.5v2.5h2.6v1.4h-2.6v4.7c0,1.2,0.5,1.5,1.5,1.5
		c0.4,0,0.8-0.1,1.1-0.2v1.4C761.6,335,761.1,335.1,760.6,335.1z"/>
	<path class="st0" d="M767.8,325.8c2.4,0,4.3,1.6,4.3,4.5c0,0.2,0,0.3,0,0.5h-7.4c0.1,1.7,1.3,3,3.1,3c1.4,0,2.3-0.6,2.8-1.6
		l1.2,0.8c-0.8,1.3-2.2,2.1-4.1,2.1c-2.8,0-4.7-2-4.7-4.7C763.1,327.9,765,325.8,767.8,325.8z M764.8,329.5h5.7
		c-0.2-1.5-1.4-2.4-2.8-2.4C766.4,327.2,765,328,764.8,329.5z"/>
	<path class="st0" d="M778,325.8c1.4,0,2.6,0.7,3.2,1.6v-5.9h1.5V335h-1.5v-1.4c-0.6,0.9-1.8,1.6-3.2,1.6c-2.5,0-4.4-2.1-4.4-4.7
		C773.5,327.9,775.4,325.8,778,325.8z M778.2,327.2c-1.8,0-3.1,1.4-3.1,3.3c0,1.8,1.3,3.3,3.1,3.3s3.1-1.4,3.1-3.3
		C781.3,328.7,780,327.2,778.2,327.2z"/>
</g>
<g class="st2">
	<path class="st0" d="M641.5,347.7h1.5v1.4c0.5-1,1.5-1.6,2.7-1.6c1.4,0,2.3,0.7,2.8,1.9c0.5-1.2,1.6-1.9,3-1.9c2,0,3.2,1.5,3.2,3.7
		v5.5h-1.5v-5.3c0-1.5-0.6-2.5-1.8-2.5c-1.5,0-2.5,1.3-2.5,3.3v4.5h-1.5v-5.3c0-1.5-0.6-2.5-1.8-2.5c-1.5,0-2.5,1.3-2.5,3.3v4.5
		h-1.5v-9H641.5z"/>
	<path class="st0" d="M661.4,356.9c-2.7,0-4.7-2.1-4.7-4.7s2-4.7,4.7-4.7s4.7,2.1,4.7,4.7S664.1,356.9,661.4,356.9z M661.4,355.5
		c1.9,0,3.1-1.4,3.1-3.2c0-1.8-1.2-3.2-3.1-3.2c-1.9,0-3.1,1.4-3.1,3.2C658.3,354,659.5,355.5,661.4,355.5z"/>
	<path class="st0" d="M668.3,347.7h1.5v1.4c0.6-1.1,1.7-1.6,2.9-1.6c2,0,3.4,1.4,3.4,3.6v5.5h-1.5v-5.3c0-1.5-0.9-2.4-2.1-2.4
		c-1.5,0-2.6,1.2-2.6,3.3v4.5h-1.5v-9H668.3z"/>
	<path class="st0" d="M682.3,356.8c-1.6,0-2.8-0.9-2.8-2.8v-4.9h-1.9v-1.4h1.9v-2.5h1.5v2.5h2.6v1.4H681v4.7c0,1.2,0.5,1.5,1.5,1.5
		c0.4,0,0.8-0.1,1.1-0.2v1.4C683.3,356.7,682.8,356.8,682.3,356.8z"/>
	<path class="st0" d="M685.7,343.2h1.5v5.9c0.6-1.1,1.7-1.6,2.9-1.6c2,0,3.4,1.4,3.4,3.6v5.5H692v-5.3c0-1.5-0.9-2.4-2.1-2.4
		c-1.5,0-2.6,1.2-2.6,3.3v4.5h-1.5v-13.5H685.7z"/>
	<path class="st0" d="M696.3,343.2h1.5v13.5h-1.5V343.2z"/>
	<path class="st0" d="M701.4,360.5l2-4.2l-3.9-8.5h1.7l3.1,6.8l3.1-6.8h1.7l-5.9,12.8L701.4,360.5L701.4,360.5z"/>
</g>
<g class="st2">
	<path class="st0" d="M716,356.8c-1.6,0-2.8-0.9-2.8-2.8v-4.9h-1.9v-1.4h1.9v-2.5h1.5v2.5h2.6v1.4h-2.6v4.7c0,1.2,0.5,1.5,1.5,1.5
		c0.4,0,0.8-0.1,1.1-0.2v1.4C717,356.7,716.6,356.8,716,356.8z"/>
	<path class="st0" d="M719.4,343.2h1.5v5.9c0.6-1.1,1.7-1.6,2.9-1.6c2,0,3.4,1.4,3.4,3.6v5.5h-1.5v-5.3c0-1.5-0.9-2.4-2.1-2.4
		c-1.5,0-2.6,1.2-2.6,3.3v4.5h-1.5v-13.5H719.4z"/>
	<path class="st0" d="M730,347.7h1.5v1.7c0.4-1.2,1.5-1.8,2.5-1.8c0.2,0,0.4,0,0.7,0.1v1.6c-0.3-0.1-0.5-0.1-0.8-0.1
		c-1.1,0-2.4,1-2.4,3.1v4.5H730V347.7z"/>
	<path class="st0" d="M740.2,356.9c-2.7,0-4.7-2.1-4.7-4.7s2-4.7,4.7-4.7s4.7,2.1,4.7,4.7S742.9,356.9,740.2,356.9z M740.2,355.5
		c1.9,0,3.1-1.4,3.1-3.2c0-1.8-1.2-3.2-3.1-3.2c-1.9,0-3.1,1.4-3.1,3.2C737.1,354,738.4,355.5,740.2,355.5z"/>
	<path class="st0" d="M747,347.7h1.5v5.3c0,1.5,0.8,2.5,2,2.5c1.4,0,2.5-1.2,2.5-3.3v-4.5h1.5v9H753v-1.4c-0.6,1-1.6,1.6-2.8,1.6
		c-2,0-3.3-1.4-3.3-3.7L747,347.7L747,347.7z"/>
	<path class="st0" d="M761.4,360.7c-1.9,0-3.5-0.8-4.2-1.8l1.1-1.1c0.7,0.9,1.8,1.5,3.2,1.5c1.5,0,3-1,3-3.1v-1
		c-0.6,0.9-1.8,1.6-3.1,1.6c-2.5,0-4.4-2-4.4-4.6s1.9-4.6,4.4-4.6c1.3,0,2.5,0.7,3.1,1.6v-1.4h1.5v8.5
		C766,359.2,764,360.7,761.4,360.7z M761.5,355.3c1.8,0,3-1.3,3-3.2c0-1.8-1.2-3.2-3-3.2s-3,1.4-3,3.2
		C758.4,353.9,759.7,355.3,761.5,355.3z"/>
	<path class="st0" d="M768.9,343.2h1.5v5.9c0.6-1.1,1.7-1.6,2.9-1.6c2,0,3.4,1.4,3.4,3.6v5.5h-1.5v-5.3c0-1.5-0.9-2.4-2.1-2.4
		c-1.5,0-2.6,1.2-2.6,3.3v4.5H769v-13.5H768.9z"/>
</g>
<g class="st2">
	<path class="st0" d="M645.5,378.6c-2.7,0-4.7-2.1-4.7-4.7s2-4.7,4.7-4.7s4.7,2.1,4.7,4.7S648.2,378.6,645.5,378.6z M645.5,377.2
		c1.9,0,3.1-1.4,3.1-3.2c0-1.8-1.2-3.2-3.1-3.2c-1.9,0-3.1,1.4-3.1,3.2C642.3,375.7,643.6,377.2,645.5,377.2z"/>
	<path class="st0" d="M652.2,369.4h1.5v5.3c0,1.5,0.8,2.5,2,2.5c1.4,0,2.5-1.2,2.5-3.3v-4.5h1.5v9h-1.5V377c-0.6,1-1.6,1.6-2.8,1.6
		c-2,0-3.3-1.4-3.3-3.7L652.2,369.4L652.2,369.4z"/>
	<path class="st0" d="M662.8,369.4h1.5v1.7c0.4-1.2,1.5-1.8,2.5-1.8c0.2,0,0.5,0,0.7,0.1v1.6c-0.3-0.1-0.5-0.1-0.8-0.1
		c-1.1,0-2.4,1-2.4,3.1v4.5h-1.5V369.4z"/>
	<path class="st0" d="M676,378.6c-1.6,0-3-0.7-3.5-2.1l1.3-0.7c0.3,0.9,1.3,1.4,2.3,1.4c0.9,0,1.6-0.4,1.6-1.2c0-0.6-0.4-1-1.6-1.4
		l-0.9-0.3c-1.5-0.4-2.3-1.4-2.3-2.6c0-1.5,1.4-2.5,3.1-2.5c1.3,0,2.4,0.6,3,1.6l-1.2,0.8c-0.4-0.6-1-1-1.9-1
		c-0.8,0-1.5,0.4-1.5,1.1c0,0.5,0.3,1,1.3,1.3l1,0.3c1.5,0.5,2.4,1.3,2.4,2.6C679.1,377.6,677.8,378.6,676,378.6z"/>
	<path class="st0" d="M685.4,378.6c-2.7,0-4.7-2.1-4.7-4.7s2-4.7,4.7-4.7s4.7,2.1,4.7,4.7C690.1,376.5,688.1,378.6,685.4,378.6z
		 M685.4,377.2c1.9,0,3.1-1.4,3.1-3.2c0-1.8-1.2-3.2-3.1-3.2s-3.1,1.4-3.1,3.2C682.2,375.7,683.5,377.2,685.4,377.2z"/>
	<path class="st0" d="M692.3,364.9h1.5v13.5h-1.5V364.9z"/>
	<path class="st0" d="M696.6,369.4h1.5v5.3c0,1.5,0.8,2.5,2,2.5c1.4,0,2.5-1.2,2.5-3.3v-4.5h1.5v9h-1.5V377c-0.6,1-1.6,1.6-2.8,1.6
		c-2,0-3.3-1.4-3.3-3.7L696.6,369.4L696.6,369.4z"/>
	<path class="st0" d="M710.7,378.5c-1.6,0-2.8-0.9-2.8-2.8v-4.9H706v-1.4h1.9v-2.5h1.5v2.5h2.6v1.4h-2.6v4.7c0,1.2,0.5,1.5,1.5,1.5
		c0.4,0,0.8-0.1,1.1-0.2v1.4C711.7,378.4,711.2,378.5,710.7,378.5z"/>
	<path class="st0" d="M714.8,367c-0.6,0-1.1-0.5-1.1-1.1s0.5-1.1,1.1-1.1s1.1,0.5,1.1,1.1C715.9,366.5,715.4,367,714.8,367z
		 M714,369.4h1.5v9H714V369.4z"/>
	<path class="st0" d="M722.5,378.6c-2.7,0-4.7-2.1-4.7-4.7s2-4.7,4.7-4.7s4.7,2.1,4.7,4.7S725.2,378.6,722.5,378.6z M722.5,377.2
		c1.9,0,3.1-1.4,3.1-3.2c0-1.8-1.2-3.2-3.1-3.2s-3.1,1.4-3.1,3.2C719.4,375.7,720.6,377.2,722.5,377.2z"/>
	<path class="st0" d="M729.4,369.4h1.5v1.4c0.6-1.1,1.7-1.6,2.9-1.6c2,0,3.4,1.4,3.4,3.6v5.5h-1.5V373c0-1.5-0.9-2.4-2.1-2.4
		c-1.5,0-2.6,1.2-2.6,3.3v4.5h-1.5v-9H729.4z"/>
	<path class="st0" d="M742.7,378.6c-1.6,0-3-0.7-3.5-2.1l1.3-0.7c0.3,0.9,1.3,1.4,2.3,1.4c0.9,0,1.6-0.4,1.6-1.2
		c0-0.6-0.4-1-1.6-1.4l-0.9-0.3c-1.5-0.4-2.3-1.4-2.3-2.6c0-1.5,1.4-2.5,3.1-2.5c1.3,0,2.4,0.6,3,1.6l-1.2,0.8c-0.4-0.6-1-1-1.9-1
		c-0.8,0-1.5,0.4-1.5,1.1c0,0.5,0.3,1,1.3,1.3l1,0.3c1.5,0.5,2.4,1.3,2.4,2.6C745.9,377.6,744.5,378.6,742.7,378.6z"/>
</g>
<g class="st2">
	<path class="st1" d="M530.4,8.8c2.4,0,4.3,1.6,4.3,4.5c0,0.2,0,0.3,0,0.5h-7.4c0.1,1.7,1.3,3,3.1,3c1.4,0,2.3-0.6,2.8-1.6l1.2,0.8
		c-0.8,1.3-2.2,2.1-4.1,2.1c-2.8,0-4.7-2-4.7-4.7C525.7,10.9,527.7,8.8,530.4,8.8z M527.4,12.5h5.7c-0.2-1.5-1.4-2.4-2.8-2.4
		C529,10.2,527.7,11,527.4,12.5z"/>
	<path class="st1" d="M537.1,5.2h1.7v11.2h6.2V18h-7.8V5.2H537.1z"/>
	<path class="st1" d="M550.4,8.8c2.4,0,4.3,1.6,4.3,4.5c0,0.2,0,0.3,0,0.5h-7.4c0.1,1.7,1.3,3,3.1,3c1.4,0,2.3-0.6,2.8-1.6l1.2,0.8
		c-0.8,1.3-2.2,2.1-4.1,2.1c-2.8,0-4.7-2-4.7-4.7C545.7,10.9,547.7,8.8,550.4,8.8z M547.4,12.5h5.7c-0.2-1.5-1.4-2.4-2.8-2.4
		C549,10.2,547.7,11,547.4,12.5z"/>
	<path class="st1" d="M560.6,8.8c1.4,0,2.6,0.7,3.2,1.6V9h1.5v9h-1.5v-1.4c-0.6,0.9-1.8,1.6-3.2,1.6c-2.5,0-4.4-2.1-4.4-4.7
		C556.2,10.9,558.1,8.8,560.6,8.8z M560.8,10.2c-1.8,0-3.1,1.4-3.1,3.3c0,1.8,1.3,3.3,3.1,3.3s3.1-1.4,3.1-3.3
		C563.9,11.7,562.7,10.2,560.8,10.2z"/>
	<path class="st1" d="M568.2,9h1.5v1.7c0.4-1.2,1.5-1.8,2.5-1.8c0.2,0,0.4,0,0.7,0.1v1.6c-0.3-0.1-0.5-0.1-0.8-0.1
		c-1.1,0-2.4,1-2.4,3.1V18h-1.5V9z"/>
	<path class="st1" d="M574.8,9h1.5v1.4c0.6-1.1,1.7-1.6,2.9-1.6c2,0,3.4,1.4,3.4,3.6V18h-1.5v-5.3c0-1.5-0.9-2.4-2.1-2.4
		c-1.5,0-2.6,1.2-2.6,3.3V18h-1.5V9H574.8z"/>
	<path class="st1" d="M586.2,6.6c-0.6,0-1.1-0.5-1.1-1.1s0.5-1.1,1.1-1.1s1.1,0.5,1.1,1.1S586.8,6.6,586.2,6.6z M585.4,9h1.5v9h-1.5
		V9z"/>
	<path class="st1" d="M589.9,9h1.5v1.4c0.6-1.1,1.7-1.6,2.9-1.6c2,0,3.4,1.4,3.4,3.6V18h-1.5v-5.3c0-1.5-0.9-2.4-2.1-2.4
		c-1.5,0-2.6,1.2-2.6,3.3V18H590V9H589.9z"/>
	<path class="st1" d="M604.3,21.9c-1.9,0-3.5-0.8-4.2-1.8l1.1-1.1c0.7,0.9,1.8,1.5,3.2,1.5c1.5,0,3-1,3-3.1v-1
		c-0.6,0.9-1.8,1.6-3.1,1.6c-2.5,0-4.4-2-4.4-4.6s1.9-4.6,4.4-4.6c1.3,0,2.5,0.7,3.1,1.6V9h1.5v8.5
		C608.9,20.5,606.9,21.9,604.3,21.9z M604.4,16.5c1.8,0,3-1.3,3-3.2c0-1.8-1.2-3.2-3-3.2s-3,1.4-3,3.2
		C601.4,15.2,602.6,16.5,604.4,16.5z"/>
	<path class="st1" d="M616.2,9h1.5v1.4c0.6-0.9,1.8-1.6,3.2-1.6c2.5,0,4.4,2.1,4.4,4.7s-1.9,4.7-4.4,4.7c-1.3,0-2.6-0.7-3.2-1.6v5.1
		h-1.5V9z M620.6,10.2c-1.8,0-3.1,1.4-3.1,3.3c0,1.8,1.2,3.3,3.1,3.3c1.8,0,3.1-1.4,3.1-3.3C623.7,11.7,622.5,10.2,620.6,10.2z"/>
	<path class="st1" d="M631.2,8.8c1.4,0,2.6,0.7,3.2,1.6V9h1.5v9h-1.5v-1.4c-0.6,0.9-1.8,1.6-3.2,1.6c-2.5,0-4.4-2.1-4.4-4.7
		S628.7,8.8,631.2,8.8z M631.5,10.2c-1.8,0-3.1,1.4-3.1,3.3c0,1.8,1.3,3.3,3.1,3.3s3.1-1.4,3.1-3.3
		C634.5,11.7,633.3,10.2,631.5,10.2z"/>
	<path class="st1" d="M638.8,9h1.5v1.7c0.4-1.2,1.5-1.8,2.5-1.8c0.2,0,0.4,0,0.7,0.1v1.6c-0.3-0.1-0.5-0.1-0.8-0.1
		c-1.1,0-2.4,1-2.4,3.1V18h-1.5V9z"/>
	<path class="st1" d="M648.9,18.1c-1.6,0-2.8-0.9-2.8-2.8v-4.9h-1.9V9h1.9V6.5h1.5V9h2.6v1.4h-2.6v4.7c0,1.2,0.5,1.5,1.5,1.5
		c0.4,0,0.8-0.1,1.1-0.2v1.4C649.9,18,649.5,18.1,648.9,18.1z"/>
	<path class="st1" d="M652.3,9h1.5v1.4c0.6-1.1,1.7-1.6,2.9-1.6c2,0,3.4,1.4,3.4,3.6V18h-1.5v-5.3c0-1.5-0.9-2.4-2.1-2.4
		c-1.5,0-2.6,1.2-2.6,3.3V18h-1.5V9H652.3z"/>
	<path class="st1" d="M666.9,8.8c2.4,0,4.3,1.6,4.3,4.5c0,0.2,0,0.3,0,0.5h-7.4c0.1,1.7,1.3,3,3.1,3c1.4,0,2.3-0.6,2.8-1.6l1.2,0.8
		c-0.8,1.3-2.2,2.1-4.1,2.1c-2.8,0-4.7-2-4.7-4.7C662.2,10.9,664.1,8.8,666.9,8.8z M663.9,12.5h5.7c-0.2-1.5-1.4-2.4-2.8-2.4
		C665.5,10.2,664.2,11,663.9,12.5z"/>
	<path class="st1" d="M673.4,9h1.5v1.7c0.4-1.2,1.5-1.8,2.5-1.8c0.2,0,0.5,0,0.7,0.1v1.6c-0.3-0.1-0.5-0.1-0.8-0.1
		c-1.1,0-2.4,1-2.4,3.1V18h-1.5V9z"/>
	<path class="st1" d="M682.5,18.2c-1.6,0-3-0.7-3.5-2.1l1.3-0.7c0.3,0.9,1.3,1.4,2.3,1.4c0.9,0,1.6-0.4,1.6-1.2c0-0.6-0.4-1-1.6-1.4
		l-0.9-0.3c-1.5-0.4-2.3-1.4-2.3-2.6c0-1.5,1.4-2.5,3.1-2.5c1.3,0,2.4,0.6,3,1.6l-1.2,0.8c-0.4-0.6-1-1-1.9-1
		c-0.8,0-1.5,0.4-1.5,1.1c0,0.5,0.3,1,1.3,1.3l1,0.3c1.5,0.5,2.4,1.3,2.4,2.6C685.6,17.2,684.3,18.2,682.5,18.2z"/>
</g>
<g class="st2">
	<path class="st1" d="M526.4,30.7h1.5v1.7c0.4-1.2,1.5-1.8,2.5-1.8c0.2,0,0.5,0,0.7,0.1v1.6c-0.3-0.1-0.5-0.1-0.8-0.1
		c-1.1,0-2.4,1-2.4,3.1v4.5h-1.5V30.7z"/>
	<path class="st1" d="M536.7,30.5c2.4,0,4.3,1.6,4.3,4.5c0,0.2,0,0.3,0,0.5h-7.4c0.1,1.7,1.3,3,3.1,3c1.4,0,2.3-0.6,2.8-1.6l1.2,0.8
		c-0.8,1.3-2.2,2.1-4.1,2.1c-2.8,0-4.7-2-4.7-4.7C532,32.6,533.9,30.5,536.7,30.5z M533.7,34.3h5.7c-0.2-1.5-1.4-2.4-2.8-2.4
		C535.3,31.9,534,32.8,533.7,34.3z"/>
	<path class="st1" d="M547,43.7c-1.9,0-3.5-0.8-4.2-1.8l1.1-1.1c0.7,0.9,1.8,1.5,3.2,1.5c1.5,0,3-1,3-3.1v-1
		c-0.6,0.9-1.8,1.6-3.1,1.6c-2.5,0-4.4-2-4.4-4.6s1.9-4.6,4.4-4.6c1.3,0,2.5,0.7,3.1,1.6v-1.4h1.5v8.5
		C551.6,42.2,549.6,43.7,547,43.7z M547.1,38.3c1.8,0,3-1.3,3-3.2c0-1.8-1.2-3.2-3-3.2s-3,1.4-3,3.2C544,36.9,545.3,38.3,547.1,38.3
		z"/>
	<path class="st1" d="M555.3,28.3c-0.6,0-1.1-0.5-1.1-1.1s0.5-1.1,1.1-1.1s1.1,0.5,1.1,1.1C556.3,27.8,555.9,28.3,555.3,28.3z
		 M554.5,30.7h1.5v9h-1.5V30.7z"/>
	<path class="st1" d="M561.7,39.9c-1.6,0-3-0.7-3.5-2.1l1.3-0.7c0.3,0.9,1.3,1.4,2.3,1.4c0.9,0,1.6-0.4,1.6-1.2c0-0.6-0.4-1-1.6-1.4
		l-0.9-0.3c-1.5-0.4-2.3-1.4-2.3-2.6c0-1.5,1.4-2.5,3.1-2.5c1.3,0,2.4,0.6,3,1.6l-1.2,0.8c-0.4-0.6-1-1-1.9-1
		c-0.8,0-1.5,0.4-1.5,1.1c0,0.5,0.3,1,1.3,1.3l1,0.3c1.5,0.5,2.4,1.3,2.4,2.6C564.8,38.9,563.5,39.9,561.7,39.9z"/>
	<path class="st1" d="M570.5,39.8c-1.6,0-2.8-0.9-2.8-2.8v-4.9h-1.9v-1.4h1.9v-2.5h1.5v2.5h2.6v1.4h-2.6v4.7c0,1.2,0.5,1.5,1.5,1.5
		c0.4,0,0.8-0.1,1.1-0.2v1.4C571.5,39.7,571,39.8,570.5,39.8z"/>
	<path class="st1" d="M577.7,30.5c2.4,0,4.3,1.6,4.3,4.5c0,0.2,0,0.3,0,0.5h-7.4c0.1,1.7,1.3,3,3.1,3c1.4,0,2.3-0.6,2.8-1.6l1.2,0.8
		c-0.8,1.3-2.2,2.1-4.1,2.1c-2.8,0-4.7-2-4.7-4.7C573,32.6,574.9,30.5,577.7,30.5z M574.7,34.3h5.7c-0.2-1.5-1.4-2.4-2.8-2.4
		C576.3,31.9,575,32.8,574.7,34.3z"/>
	<path class="st1" d="M584.1,30.7h1.5v1.7c0.4-1.2,1.5-1.8,2.5-1.8c0.2,0,0.4,0,0.7,0.1v1.6c-0.3-0.1-0.5-0.1-0.8-0.1
		c-1.1,0-2.4,1-2.4,3.1v4.5h-1.5V30.7z"/>
	<path class="st1" d="M594.4,30.5c2.4,0,4.3,1.6,4.3,4.5c0,0.2,0,0.3,0,0.5h-7.4c0.1,1.7,1.3,3,3.1,3c1.4,0,2.3-0.6,2.8-1.6l1.2,0.8
		c-0.8,1.3-2.2,2.1-4.1,2.1c-2.8,0-4.7-2-4.7-4.7C589.7,32.6,591.7,30.5,594.4,30.5z M591.4,34.3h5.7c-0.2-1.5-1.4-2.4-2.8-2.4
		C593,31.9,591.7,32.8,591.4,34.3z"/>
	<path class="st1" d="M604.6,30.5c1.4,0,2.6,0.7,3.2,1.6v-5.9h1.5v13.5h-1.5v-1.4c-0.6,0.9-1.8,1.6-3.2,1.6c-2.5,0-4.4-2.1-4.4-4.7
		C600.2,32.6,602.1,30.5,604.6,30.5z M604.8,32c-1.8,0-3.1,1.4-3.1,3.3c0,1.8,1.3,3.3,3.1,3.3s3.1-1.4,3.1-3.3
		C607.9,33.4,606.6,32,604.8,32z"/>
	<path class="st1" d="M619.7,39.8c-1.6,0-2.8-0.9-2.8-2.8v-4.9H615v-1.4h1.9v-2.5h1.5v2.5h2.6v1.4h-2.6v4.7c0,1.2,0.5,1.5,1.5,1.5
		c0.4,0,0.8-0.1,1.1-0.2v1.4C620.7,39.7,620.3,39.8,619.7,39.8z"/>
	<path class="st1" d="M627,39.9c-2.7,0-4.7-2.1-4.7-4.7s2-4.7,4.7-4.7s4.7,2.1,4.7,4.7S629.7,39.9,627,39.9z M627,38.5
		c1.9,0,3.1-1.4,3.1-3.2s-1.2-3.2-3.1-3.2c-1.9,0-3.1,1.4-3.1,3.2C623.8,37,625.1,38.5,627,38.5z"/>
</g>
<g class="st2">
	<path class="st1" d="M530.4,61.6c-2.7,0-4.7-2.1-4.7-4.7s2-4.7,4.7-4.7s4.7,2.1,4.7,4.7S533.1,61.6,530.4,61.6z M530.4,60.2
		c1.9,0,3.1-1.4,3.1-3.2s-1.2-3.2-3.1-3.2s-3.1,1.4-3.1,3.2C527.3,58.7,528.6,60.2,530.4,60.2z"/>
	<path class="st1" d="M537.2,52.4h1.5v5.3c0,1.5,0.8,2.5,2,2.5c1.4,0,2.5-1.2,2.5-3.3v-4.5h1.5v9h-1.5V60c-0.6,1-1.6,1.6-2.8,1.6
		c-2,0-3.3-1.4-3.3-3.7L537.2,52.4L537.2,52.4z"/>
	<path class="st1" d="M547.8,52.4h1.5v1.7c0.4-1.2,1.5-1.8,2.5-1.8c0.2,0,0.5,0,0.7,0.1V54c-0.3-0.1-0.5-0.1-0.8-0.1
		c-1.1,0-2.4,1-2.4,3.1v4.5h-1.5V52.4z"/>
	<path class="st1" d="M562,52.3c1.4,0,2.6,0.7,3.2,1.6V48h1.5v13.5h-1.5v-1.4c-0.6,0.9-1.8,1.6-3.2,1.6c-2.5,0-4.4-2.1-4.4-4.7
		C557.5,54.4,559.4,52.3,562,52.3z M562.2,53.7c-1.8,0-3.1,1.4-3.1,3.3c0,1.8,1.3,3.3,3.1,3.3s3.1-1.4,3.1-3.3
		C565.3,55.1,564,53.7,562.2,53.7z"/>
	<path class="st1" d="M570.4,50c-0.6,0-1.1-0.5-1.1-1.1s0.5-1.1,1.1-1.1s1.1,0.5,1.1,1.1S571,50,570.4,50z M569.6,52.4h1.5v9h-1.5
		V52.4z"/>
	<path class="st1" d="M574.1,52.4h1.5v1.7c0.4-1.2,1.5-1.8,2.5-1.8c0.2,0,0.4,0,0.7,0.1V54c-0.3-0.1-0.5-0.1-0.8-0.1
		c-1.1,0-2.4,1-2.4,3.1v4.5h-1.5V52.4z"/>
	<path class="st1" d="M584.3,52.3c2.4,0,4.3,1.6,4.3,4.5c0,0.2,0,0.3,0,0.5h-7.4c0.1,1.7,1.3,3,3.1,3c1.4,0,2.3-0.6,2.8-1.6l1.2,0.8
		c-0.8,1.3-2.2,2.1-4.1,2.1c-2.8,0-4.7-2-4.7-4.7C579.6,54.3,581.6,52.3,584.3,52.3z M581.3,56h5.7c-0.2-1.5-1.4-2.4-2.8-2.4
		C582.9,53.6,581.6,54.5,581.3,56z"/>
	<path class="st1" d="M594.8,61.6c-2.7,0-4.7-2.1-4.7-4.7c0-2.6,2-4.7,4.7-4.7c1.9,0,3.4,1,4.2,2.4l-1.3,0.8c-0.5-1-1.5-1.7-2.8-1.7
		c-1.9,0-3.2,1.4-3.2,3.2s1.3,3.2,3.2,3.2c1.3,0,2.3-0.7,2.8-1.7l1.3,0.8C598.2,60.6,596.7,61.6,594.8,61.6z"/>
	<path class="st1" d="M604.5,61.5c-1.6,0-2.8-0.9-2.8-2.8v-4.9h-1.9v-1.4h1.9v-2.5h1.5v2.5h2.6v1.4h-2.6v4.7c0,1.2,0.5,1.5,1.5,1.5
		c0.4,0,0.8-0.1,1.1-0.2v1.4C605.5,61.4,605,61.5,604.5,61.5z"/>
	<path class="st1" d="M611.7,61.6c-2.7,0-4.7-2.1-4.7-4.7s2-4.7,4.7-4.7s4.7,2.1,4.7,4.7S614.4,61.6,611.7,61.6z M611.7,60.2
		c1.9,0,3.1-1.4,3.1-3.2s-1.2-3.2-3.1-3.2c-1.9,0-3.1,1.4-3.1,3.2C608.6,58.7,609.8,60.2,611.7,60.2z"/>
	<path class="st1" d="M618.6,52.4h1.5v1.7c0.4-1.2,1.5-1.8,2.5-1.8c0.2,0,0.4,0,0.7,0.1V54c-0.3-0.1-0.5-0.1-0.8-0.1
		c-1.1,0-2.4,1-2.4,3.1v4.5h-1.5V52.4z"/>
	<path class="st1" d="M626,50c-0.6,0-1.1-0.5-1.1-1.1s0.5-1.1,1.1-1.1s1.1,0.5,1.1,1.1S626.6,50,626,50z M625.2,52.4h1.5v9h-1.5
		V52.4z"/>
	<path class="st1" d="M633.6,52.3c2.4,0,4.3,1.6,4.3,4.5c0,0.2,0,0.3,0,0.5h-7.4c0.1,1.7,1.3,3,3.1,3c1.4,0,2.3-0.6,2.8-1.6l1.2,0.8
		c-0.8,1.3-2.2,2.1-4.1,2.1c-2.8,0-4.7-2-4.7-4.7C629,54.3,630.9,52.3,633.6,52.3z M630.6,56h5.7c-0.2-1.5-1.4-2.4-2.8-2.4
		C632.2,53.6,630.9,54.5,630.6,56z"/>
	<path class="st1" d="M642.8,61.6c-1.6,0-3-0.7-3.5-2.1l1.3-0.7c0.3,0.9,1.3,1.4,2.3,1.4c0.9,0,1.6-0.4,1.6-1.2c0-0.6-0.4-1-1.6-1.4
		l-0.9-0.3c-1.5-0.4-2.3-1.4-2.3-2.6c0-1.5,1.4-2.5,3.1-2.5c1.3,0,2.4,0.6,3,1.6l-1.2,0.8c-0.4-0.6-1-1-1.9-1
		c-0.8,0-1.5,0.4-1.5,1.1c0,0.5,0.3,1,1.3,1.3l1,0.3c1.5,0.5,2.4,1.3,2.4,2.6C646,60.6,644.6,61.6,642.8,61.6z"/>
</g>
<g class="st2">
	<path class="st4" d="M271,555.9c2.4,0,4.3,1.6,4.3,4.5c0,0.2,0,0.3,0,0.5h-7.4c0.1,1.7,1.3,3,3.1,3c1.4,0,2.3-0.6,2.8-1.6l1.2,0.8
		c-0.8,1.3-2.2,2.1-4.1,2.1c-2.8,0-4.7-2-4.7-4.7C266.4,557.9,268.3,555.9,271,555.9z M268,559.6h5.7c-0.2-1.5-1.4-2.4-2.8-2.4
		C269.6,557.2,268.3,558.1,268,559.6z"/>
	<path class="st4" d="M277.7,552.3h1.7v11.2h6.2v1.6h-7.9L277.7,552.3L277.7,552.3z"/>
	<path class="st4" d="M291,555.9c2.4,0,4.3,1.6,4.3,4.5c0,0.2,0,0.3,0,0.5h-7.4c0.1,1.7,1.3,3,3.1,3c1.4,0,2.3-0.6,2.8-1.6l1.2,0.8
		c-0.8,1.3-2.2,2.1-4.1,2.1c-2.8,0-4.7-2-4.7-4.7C286.4,557.9,288.3,555.9,291,555.9z M288,559.6h5.7c-0.2-1.5-1.4-2.4-2.8-2.4
		C289.6,557.2,288.3,558.1,288,559.6z"/>
	<path class="st4" d="M301.2,555.9c1.4,0,2.6,0.7,3.2,1.6V556h1.5v9h-1.5v-1.4c-0.6,0.9-1.8,1.6-3.2,1.6c-2.5,0-4.4-2.1-4.4-4.7
		C296.8,558,298.7,555.9,301.2,555.9z M301.5,557.3c-1.8,0-3.1,1.4-3.1,3.3c0,1.8,1.3,3.3,3.1,3.3s3.1-1.4,3.1-3.3
		C304.5,558.7,303.3,557.3,301.5,557.3z"/>
	<path class="st4" d="M308.8,556h1.5v1.7c0.4-1.2,1.5-1.8,2.5-1.8c0.2,0,0.5,0,0.7,0.1v1.6c-0.3-0.1-0.5-0.1-0.8-0.1
		c-1.1,0-2.4,1-2.4,3.1v4.5h-1.5L308.8,556L308.8,556z"/>
	<path class="st4" d="M315.4,556h1.5v1.4c0.6-1.1,1.7-1.6,2.9-1.6c2,0,3.4,1.4,3.4,3.6v5.5h-1.5v-5.3c0-1.5-0.9-2.4-2.1-2.4
		c-1.5,0-2.6,1.2-2.6,3.3v4.5h-1.5L315.4,556L315.4,556z"/>
	<path class="st4" d="M326.8,553.6c-0.6,0-1.1-0.5-1.1-1.1s0.5-1.1,1.1-1.1s1.1,0.5,1.1,1.1S327.4,553.6,326.8,553.6z M326,556h1.5
		v9H326V556z"/>
	<path class="st4" d="M330.5,556h1.5v1.4c0.6-1.1,1.7-1.6,2.9-1.6c2,0,3.4,1.4,3.4,3.6v5.5h-1.5v-5.3c0-1.5-0.9-2.4-2.1-2.4
		c-1.5,0-2.6,1.2-2.6,3.3v4.5h-1.5L330.5,556L330.5,556z"/>
	<path class="st4" d="M345,569c-1.9,0-3.5-0.8-4.2-1.8l1.1-1.1c0.7,0.9,1.8,1.5,3.2,1.5c1.5,0,3-1,3-3.1v-1
		c-0.6,0.9-1.8,1.6-3.1,1.6c-2.5,0-4.4-2-4.4-4.6s1.9-4.6,4.4-4.6c1.3,0,2.5,0.7,3.1,1.6V556h1.5v8.5C349.5,567.5,347.5,569,345,569
		z M345,563.6c1.8,0,3-1.3,3-3.2c0-1.8-1.2-3.2-3-3.2s-3,1.4-3,3.2C342,562.3,343.2,563.6,345,563.6z"/>
	<path class="st4" d="M358.3,565h-1.5v-13.5h1.5v5.9c0.6-0.9,1.8-1.6,3.2-1.6c2.5,0,4.4,2.1,4.4,4.7c0,2.6-1.9,4.7-4.4,4.7
		c-1.4,0-2.6-0.7-3.2-1.6V565z M361.2,557.3c-1.8,0-3.1,1.4-3.1,3.3c0,1.8,1.2,3.3,3.1,3.3c1.8,0,3.1-1.4,3.1-3.3
		C364.3,558.7,363.1,557.3,361.2,557.3z"/>
	<path class="st4" d="M368,556h1.5v5.3c0,1.5,0.8,2.5,2,2.5c1.4,0,2.5-1.2,2.5-3.3V556h1.5v9H374v-1.4c-0.6,1-1.6,1.6-2.8,1.6
		c-2,0-3.3-1.4-3.3-3.7L368,556L368,556z"/>
	<path class="st4" d="M379.2,568.8l2-4.2l-3.9-8.5h1.7l3.1,6.8l3.1-6.8h1.7l-5.9,12.8L379.2,568.8L379.2,568.8z"/>
	<path class="st4" d="M392.2,555.9c2.4,0,4.3,1.6,4.3,4.5c0,0.2,0,0.3,0,0.5H389c0.1,1.7,1.3,3,3.1,3c1.4,0,2.3-0.6,2.8-1.6l1.2,0.8
		c-0.8,1.3-2.2,2.1-4.1,2.1c-2.8,0-4.7-2-4.7-4.7C387.5,557.9,389.4,555.9,392.2,555.9z M389.1,559.6h5.7c-0.2-1.5-1.4-2.4-2.8-2.4
		C390.8,557.2,389.4,558.1,389.1,559.6z"/>
	<path class="st4" d="M398.6,556h1.5v1.7c0.4-1.2,1.5-1.8,2.5-1.8c0.2,0,0.5,0,0.7,0.1v1.6c-0.3-0.1-0.5-0.1-0.8-0.1
		c-1.1,0-2.4,1-2.4,3.1v4.5h-1.5L398.6,556L398.6,556z"/>
	<path class="st4" d="M407.8,565.2c-1.6,0-3-0.7-3.5-2.1l1.3-0.7c0.3,0.9,1.3,1.4,2.3,1.4c0.9,0,1.6-0.4,1.6-1.2
		c0-0.6-0.4-1-1.6-1.4l-0.9-0.3c-1.5-0.4-2.3-1.4-2.3-2.6c0-1.5,1.4-2.5,3.1-2.5c1.3,0,2.4,0.6,3,1.6l-1.2,0.8c-0.4-0.6-1-1-1.9-1
		c-0.8,0-1.5,0.4-1.5,1.1c0,0.5,0.3,1,1.3,1.3l1,0.3c1.5,0.5,2.4,1.3,2.4,2.6C410.9,564.2,409.6,565.2,407.8,565.2z"/>
</g>
<g class="st2">
	<path class="st4" d="M270.8,577.6c1.4,0,2.6,0.7,3.2,1.6v-1.4h1.5v9H274v-1.4c-0.6,0.9-1.8,1.6-3.2,1.6c-2.5,0-4.4-2.1-4.4-4.7
		C266.4,579.7,268.2,577.6,270.8,577.6z M271,579c-1.8,0-3.1,1.4-3.1,3.3c0,1.8,1.3,3.3,3.1,3.3c1.8,0,3.1-1.4,3.1-3.3
		S272.8,579,271,579z"/>
	<path class="st4" d="M278.4,577.8h1.5v1.7c0.4-1.2,1.5-1.8,2.5-1.8c0.2,0,0.4,0,0.7,0.1v1.6c-0.3-0.1-0.5-0.1-0.8-0.1
		c-1.1,0-2.4,1-2.4,3.1v4.5h-1.5L278.4,577.8L278.4,577.8z"/>
	<path class="st4" d="M288.6,577.6c2.4,0,4.3,1.6,4.3,4.5c0,0.2,0,0.3,0,0.5h-7.4c0.1,1.7,1.3,3,3.1,3c1.4,0,2.3-0.6,2.8-1.6
		l1.2,0.8c-0.8,1.3-2.2,2.1-4.1,2.1c-2.8,0-4.7-2-4.7-4.7C284,579.6,285.9,577.6,288.6,577.6z M285.6,581.3h5.7
		c-0.2-1.5-1.4-2.4-2.8-2.4C287.2,578.9,285.9,579.8,285.6,581.3z"/>
	<path class="st4" d="M302.2,586.9c-1.6,0-3-0.7-3.5-2.1l1.3-0.7c0.3,0.9,1.3,1.4,2.3,1.4c0.9,0,1.6-0.4,1.6-1.2
		c0-0.6-0.4-1-1.6-1.4l-0.9-0.3c-1.5-0.4-2.3-1.4-2.3-2.6c0-1.5,1.4-2.5,3.1-2.5c1.3,0,2.4,0.6,3,1.6l-1.2,0.8c-0.4-0.6-1-1-1.9-1
		c-0.8,0-1.5,0.4-1.5,1.1c0,0.5,0.3,1,1.3,1.3l1,0.3c1.5,0.5,2.4,1.3,2.4,2.6C305.3,586,304,586.9,302.2,586.9z"/>
	<path class="st4" d="M311.5,577.6c2.4,0,4.3,1.6,4.3,4.5c0,0.2,0,0.3,0,0.5h-7.4c0.1,1.7,1.3,3,3.1,3c1.4,0,2.3-0.6,2.8-1.6
		l1.2,0.8c-0.8,1.3-2.2,2.1-4.1,2.1c-2.8,0-4.7-2-4.7-4.7C306.9,579.6,308.8,577.6,311.5,577.6z M308.5,581.3h5.7
		c-0.2-1.5-1.4-2.4-2.8-2.4C310.1,578.9,308.8,579.8,308.5,581.3z"/>
	<path class="st4" d="M321.7,577.6c1.4,0,2.6,0.7,3.2,1.6v-1.4h1.5v9h-1.5v-1.4c-0.6,0.9-1.8,1.6-3.2,1.6c-2.5,0-4.4-2.1-4.4-4.7
		C317.3,579.7,319.2,577.6,321.7,577.6z M322,579c-1.8,0-3.1,1.4-3.1,3.3c0,1.8,1.3,3.3,3.1,3.3s3.1-1.4,3.1-3.3
		C325,580.4,323.8,579,322,579z"/>
	<path class="st4" d="M329.4,577.8h1.5v1.7c0.4-1.2,1.5-1.8,2.5-1.8c0.2,0,0.5,0,0.7,0.1v1.6c-0.3-0.1-0.5-0.1-0.8-0.1
		c-1.1,0-2.4,1-2.4,3.1v4.5h-1.5L329.4,577.8L329.4,577.8z"/>
	<path class="st4" d="M339.6,586.9c-2.7,0-4.7-2.1-4.7-4.7c0-2.6,2-4.7,4.7-4.7c1.9,0,3.4,1,4.2,2.4l-1.4,0.8
		c-0.5-1-1.5-1.7-2.8-1.7c-1.9,0-3.2,1.4-3.2,3.2s1.3,3.2,3.2,3.2c1.3,0,2.3-0.7,2.8-1.7l1.4,0.8C343,586,341.5,586.9,339.6,586.9z"
		/>
	<path class="st4" d="M345.8,573.3h1.5v5.9c0.6-1.1,1.7-1.6,2.9-1.6c2,0,3.4,1.4,3.4,3.6v5.5h-1.5v-5.3c0-1.5-0.9-2.4-2.1-2.4
		c-1.5,0-2.6,1.2-2.6,3.3v4.5h-1.5L345.8,573.3L345.8,573.3z"/>
	<path class="st4" d="M357.2,575.3c-0.6,0-1.1-0.5-1.1-1.1s0.5-1.1,1.1-1.1s1.1,0.5,1.1,1.1C358.3,574.9,357.8,575.3,357.2,575.3z
		 M356.4,577.8h1.5v9h-1.5V577.8z"/>
	<path class="st4" d="M360.9,577.8h1.5v1.4c0.6-1.1,1.7-1.6,2.9-1.6c2,0,3.4,1.4,3.4,3.6v5.5h-1.5v-5.3c0-1.5-0.9-2.4-2.1-2.4
		c-1.5,0-2.6,1.2-2.6,3.3v4.5H361L360.9,577.8L360.9,577.8z"/>
	<path class="st4" d="M375.3,590.7c-1.9,0-3.5-0.8-4.2-1.8l1.1-1.1c0.7,0.9,1.8,1.5,3.2,1.5c1.5,0,3-1,3-3.1v-1
		c-0.6,0.9-1.8,1.6-3.1,1.6c-2.5,0-4.4-2-4.4-4.6s1.9-4.6,4.4-4.6c1.3,0,2.5,0.7,3.1,1.6v-1.4h1.5v8.5
		C379.9,589.2,377.9,590.7,375.3,590.7z M375.4,585.3c1.8,0,3-1.3,3-3.2c0-1.8-1.2-3.2-3-3.2s-3,1.4-3,3.2
		C372.4,584,373.6,585.3,375.4,585.3z"/>
	<path class="st4" d="M387.6,579.2h-1.9v-1.4h1.9V576c0-1.9,1.2-2.8,2.8-2.8c0.5,0,1,0.1,1.4,0.2v1.4c-0.3-0.1-0.8-0.2-1.1-0.2
		c-1,0-1.5,0.4-1.5,1.5v1.7h2.6v1.4h-2.6v7.6h-1.5L387.6,579.2L387.6,579.2z"/>
	<path class="st4" d="M397.2,586.9c-2.7,0-4.7-2.1-4.7-4.7s2-4.7,4.7-4.7s4.7,2.1,4.7,4.7S399.9,586.9,397.2,586.9z M397.2,585.5
		c1.9,0,3.1-1.4,3.1-3.2s-1.2-3.2-3.1-3.2s-3.1,1.4-3.1,3.2S395.4,585.5,397.2,585.5z"/>
	<path class="st4" d="M404.2,577.8h1.5v1.7c0.4-1.2,1.5-1.8,2.5-1.8c0.2,0,0.4,0,0.7,0.1v1.6c-0.3-0.1-0.5-0.1-0.8-0.1
		c-1.1,0-2.4,1-2.4,3.1v4.5h-1.5L404.2,577.8L404.2,577.8z"/>
	<path class="st4" d="M417.4,586.9c-1.6,0-3-0.7-3.5-2.1l1.3-0.7c0.3,0.9,1.3,1.4,2.3,1.4c0.9,0,1.6-0.4,1.6-1.2
		c0-0.6-0.4-1-1.6-1.4l-0.9-0.3c-1.5-0.4-2.3-1.4-2.3-2.6c0-1.5,1.4-2.5,3.1-2.5c1.3,0,2.4,0.6,3,1.6l-1.2,0.8c-0.4-0.6-1-1-1.9-1
		c-0.8,0-1.5,0.4-1.5,1.1c0,0.5,0.3,1,1.3,1.3l1,0.3c1.5,0.5,2.4,1.3,2.4,2.6C420.5,586,419.2,586.9,417.4,586.9z"/>
	<path class="st4" d="M426.7,586.9c-2.7,0-4.7-2.1-4.7-4.7s2-4.7,4.7-4.7s4.7,2.1,4.7,4.7S429.4,586.9,426.7,586.9z M426.7,585.5
		c1.9,0,3.1-1.4,3.1-3.2s-1.2-3.2-3.1-3.2s-3.1,1.4-3.1,3.2S424.9,585.5,426.7,585.5z"/>
	<path class="st4" d="M433.6,573.3h1.5v13.5h-1.5V573.3z"/>
	<path class="st4" d="M438,577.8h1.5v5.3c0,1.5,0.8,2.5,2,2.5c1.4,0,2.5-1.2,2.5-3.3v-4.5h1.5v9H444v-1.4c-0.6,1-1.6,1.6-2.8,1.6
		c-2,0-3.3-1.4-3.3-3.7L438,577.8L438,577.8z"/>
	<path class="st4" d="M452,586.8c-1.6,0-2.8-0.9-2.8-2.8v-4.9h-1.9v-1.4h1.9v-2.5h1.5v2.5h2.6v1.4h-2.6v4.7c0,1.2,0.5,1.5,1.5,1.5
		c0.4,0,0.8-0.1,1.1-0.2v1.4C453,586.8,452.6,586.8,452,586.8z"/>
	<path class="st4" d="M456.2,575.3c-0.6,0-1.1-0.5-1.1-1.1s0.5-1.1,1.1-1.1s1.1,0.5,1.1,1.1C457.3,574.9,456.8,575.3,456.2,575.3z
		 M455.4,577.8h1.5v9h-1.5V577.8z"/>
	<path class="st4" d="M463.9,586.9c-2.7,0-4.7-2.1-4.7-4.7s2-4.7,4.7-4.7s4.7,2.1,4.7,4.7S466.6,586.9,463.9,586.9z M463.9,585.5
		c1.9,0,3.1-1.4,3.1-3.2s-1.2-3.2-3.1-3.2s-3.1,1.4-3.1,3.2S462,585.5,463.9,585.5z"/>
	<path class="st4" d="M470.8,577.8h1.5v1.4c0.6-1.1,1.7-1.6,2.9-1.6c2,0,3.4,1.4,3.4,3.6v5.5h-1.5v-5.3c0-1.5-0.9-2.4-2.1-2.4
		c-1.5,0-2.6,1.2-2.6,3.3v4.5h-1.5L470.8,577.8L470.8,577.8z"/>
	<path class="st4" d="M484.1,586.9c-1.6,0-3-0.7-3.5-2.1l1.3-0.7c0.3,0.9,1.3,1.4,2.3,1.4c0.9,0,1.6-0.4,1.6-1.2
		c0-0.6-0.4-1-1.6-1.4l-0.9-0.3c-1.5-0.4-2.3-1.4-2.3-2.6c0-1.5,1.4-2.5,3.1-2.5c1.3,0,2.4,0.6,3,1.6l-1.2,0.8c-0.4-0.6-1-1-1.9-1
		c-0.8,0-1.5,0.4-1.5,1.1c0,0.5,0.3,1,1.3,1.3l1,0.3c1.5,0.5,2.4,1.3,2.4,2.6C487.2,586,485.9,586.9,484.1,586.9z"/>
</g>
<g class="st2">
	<path class="st4" d="M271.1,608.7c-2.7,0-4.7-2.1-4.7-4.7c0-2.6,2-4.7,4.7-4.7s4.7,2.1,4.7,4.7
		C275.8,606.6,273.8,608.7,271.1,608.7z M271.1,607.2c1.9,0,3.1-1.4,3.1-3.2s-1.2-3.2-3.1-3.2s-3.1,1.4-3.1,3.2
		C267.9,605.8,269.2,607.2,271.1,607.2z"/>
	<path class="st4" d="M278,599.5h1.5v1.4c0.6-1.1,1.7-1.6,2.9-1.6c2,0,3.4,1.4,3.4,3.6v5.5h-1.5v-5.3c0-1.5-0.9-2.4-2.1-2.4
		c-1.5,0-2.6,1.2-2.6,3.3v4.5H278V599.5z"/>
	<path class="st4" d="M296.9,608.7c-2.7,0-4.7-2.1-4.7-4.7c0-2.6,2-4.7,4.7-4.7s4.7,2.1,4.7,4.7
		C301.6,606.6,299.6,608.7,296.9,608.7z M296.9,607.2c1.9,0,3.1-1.4,3.1-3.2s-1.2-3.2-3.1-3.2s-3.1,1.4-3.1,3.2
		S295,607.2,296.9,607.2z"/>
	<path class="st4" d="M303.7,599.5h1.5v5.3c0,1.5,0.8,2.5,2,2.5c1.4,0,2.5-1.2,2.5-3.3v-4.5h1.5v9h-1.5v-1.4c-0.6,1-1.6,1.6-2.8,1.6
		c-2,0-3.3-1.4-3.3-3.7L303.7,599.5L303.7,599.5z"/>
	<path class="st4" d="M314.2,599.5h1.5v1.7c0.4-1.2,1.5-1.8,2.5-1.8c0.2,0,0.5,0,0.7,0.1v1.6c-0.3-0.1-0.5-0.1-0.8-0.1
		c-1.1,0-2.4,1-2.4,3.1v4.5h-1.5L314.2,599.5L314.2,599.5z"/>
	<path class="st4" d="M328.4,599.3c1.4,0,2.6,0.7,3.2,1.6V595h1.5v13.5h-1.5v-1.4c-0.6,0.9-1.8,1.6-3.2,1.6c-2.5,0-4.4-2.1-4.4-4.7
		C324,601.4,325.9,599.3,328.4,599.3z M328.7,600.7c-1.8,0-3.1,1.4-3.1,3.3c0,1.8,1.3,3.3,3.1,3.3c1.8,0,3.1-1.4,3.1-3.3
		C331.7,602.2,330.5,600.7,328.7,600.7z"/>
	<path class="st4" d="M336.8,597.1c-0.6,0-1.1-0.5-1.1-1.1s0.5-1.1,1.1-1.1s1.1,0.5,1.1,1.1S337.5,597.1,336.8,597.1z M336,599.5
		h1.5v9H336V599.5z"/>
	<path class="st4" d="M340.5,599.5h1.5v1.7c0.4-1.2,1.5-1.8,2.5-1.8c0.2,0,0.5,0,0.7,0.1v1.6c-0.3-0.1-0.5-0.1-0.8-0.1
		c-1.1,0-2.4,1-2.4,3.1v4.5h-1.5L340.5,599.5L340.5,599.5z"/>
	<path class="st4" d="M350.8,599.3c2.4,0,4.3,1.6,4.3,4.5c0,0.2,0,0.3,0,0.5h-7.4c0.1,1.7,1.3,3,3.1,3c1.4,0,2.3-0.6,2.8-1.6
		l1.2,0.8c-0.8,1.3-2.2,2.1-4.1,2.1c-2.8,0-4.7-2-4.7-4.7C346.1,601.3,348,599.3,350.8,599.3z M347.8,603h5.7
		c-0.2-1.5-1.4-2.4-2.8-2.4C349.4,600.7,348.1,601.5,347.8,603z"/>
	<path class="st4" d="M361.3,608.7c-2.7,0-4.7-2.1-4.7-4.7c0-2.6,2-4.7,4.7-4.7c1.9,0,3.4,1,4.2,2.4l-1.4,0.8
		c-0.5-1-1.5-1.7-2.8-1.7c-1.9,0-3.2,1.4-3.2,3.2s1.3,3.2,3.2,3.2c1.3,0,2.3-0.7,2.8-1.7l1.4,0.8
		C364.6,607.7,363.1,608.7,361.3,608.7z"/>
	<path class="st4" d="M370.9,608.6c-1.6,0-2.8-0.9-2.8-2.8v-4.9h-1.9v-1.4h1.9V597h1.5v2.5h2.6v1.4h-2.6v4.7c0,1.2,0.5,1.5,1.5,1.5
		c0.4,0,0.8-0.1,1.1-0.2v1.4C371.9,608.5,371.5,608.6,370.9,608.6z"/>
	<path class="st4" d="M378.2,608.7c-2.7,0-4.7-2.1-4.7-4.7c0-2.6,2-4.7,4.7-4.7s4.7,2.1,4.7,4.7
		C382.8,606.6,380.9,608.7,378.2,608.7z M378.2,607.2c1.9,0,3.1-1.4,3.1-3.2s-1.2-3.2-3.1-3.2s-3.1,1.4-3.1,3.2
		C375,605.8,376.3,607.2,378.2,607.2z"/>
	<path class="st4" d="M385.1,599.5h1.5v1.7c0.4-1.2,1.5-1.8,2.5-1.8c0.2,0,0.4,0,0.7,0.1v1.6c-0.3-0.1-0.5-0.1-0.8-0.1
		c-1.1,0-2.4,1-2.4,3.1v4.5h-1.5L385.1,599.5L385.1,599.5z"/>
	<path class="st4" d="M392.4,597.1c-0.6,0-1.1-0.5-1.1-1.1s0.5-1.1,1.1-1.1s1.1,0.5,1.1,1.1S393.1,597.1,392.4,597.1z M391.6,599.5
		h1.5v9h-1.5V599.5z"/>
	<path class="st4" d="M400.1,599.3c2.4,0,4.3,1.6,4.3,4.5c0,0.2,0,0.3,0,0.5H397c0.1,1.7,1.3,3,3.1,3c1.4,0,2.3-0.6,2.8-1.6l1.2,0.8
		c-0.8,1.3-2.2,2.1-4.1,2.1c-2.8,0-4.7-2-4.7-4.7C395.4,601.3,397.4,599.3,400.1,599.3z M397.1,603h5.7c-0.2-1.5-1.4-2.4-2.8-2.4
		C398.7,600.7,397.4,601.5,397.1,603z"/>
	<path class="st4" d="M409.3,608.7c-1.6,0-3-0.7-3.5-2.1l1.3-0.7c0.3,0.9,1.3,1.4,2.3,1.4c0.9,0,1.6-0.4,1.6-1.2
		c0-0.6-0.4-1-1.6-1.4l-0.9-0.3c-1.5-0.4-2.3-1.4-2.3-2.6c0-1.5,1.4-2.5,3.1-2.5c1.3,0,2.4,0.6,3,1.6l-1.2,0.8c-0.4-0.6-1-1-1.9-1
		c-0.8,0-1.5,0.4-1.5,1.1c0,0.5,0.3,1,1.3,1.3l1,0.3c1.5,0.5,2.4,1.3,2.4,2.6C412.4,607.7,411.1,608.7,409.3,608.7z"/>
</g>
<g id="Group_7801">
	<path id="Path_5623" class="st5" d="M257.3,493.5c106,0,191.9-85.9,191.9-191.9s-85.9-191.9-191.9-191.9S65.4,195.6,65.4,301.6
		S151.3,493.5,257.3,493.5"/>
</g>
<g class="st2">
	<path class="st3" d="M198.3,304.1c-0.3,0-0.4,0-0.7,0c-7.1,0-13.9-6-13.9-14.3c0-8.4,6.3-15.1,15.3-15.1s15.3,6.7,15.3,15
		c0,4.6-2.1,7.7-5.1,11.6L194.3,320h-8.7L198.3,304.1z M199,298.1c4.8,0,8.3-3.8,8.3-8.4s-3.5-8.3-8.3-8.3s-8.3,3.8-8.3,8.3
		C190.7,294.4,194.2,298.1,199,298.1z"/>
</g>
<g class="st2">
	<path class="st3" d="M235.5,320.6c-8.7,0-16-5.6-16.2-14.6h6.9c0.4,4.9,4.3,7.8,9.3,7.8c4.5,0,7.9-2.5,8-6.8c0-4.7-3.5-7.1-8.6-7.1
		h-3.5V294h3.5c4.4,0,7.3-2.6,7.3-6.3c0.1-3.7-3.1-6.2-7-6.2c-4.6,0-8.2,2.8-8.2,7.6h-7c0-9,7.1-14.4,15.1-14.4
		c8.3,0,14,5.3,13.9,12.6c0,4.3-2.5,7.9-5.5,9.7c3.9,1.7,6.7,5.5,6.7,10.5C250.4,315.3,244.3,320.6,235.5,320.6z"/>
</g>
<g class="st2">
	<path class="st3" d="M269.5,320.6c-9,0-15.3-6.6-15.3-15c0-4.6,2.1-7.7,5-11.5l14.9-18.6h8.7l-12.6,15.8c0.3,0,0.4,0,0.7,0
		c7,0,13.9,6,13.9,14.3C284.9,314.1,278.6,320.6,269.5,320.6z M269.5,314c4.8,0,8.3-3.7,8.3-8.3c0-4.6-3.6-8.3-8.3-8.3
		c-4.8,0-8.3,3.8-8.3,8.3C261.3,310.3,264.8,314,269.5,314z"/>
</g>
<g class="st2">
	<path class="st3" d="M296.3,275.5h7.3v19.2l17.9-19.2h9.3L311,296.7l24.2,23.3h-9.9l-21.7-20.8V320h-7.3L296.3,275.5L296.3,275.5z"
		/>
</g>
<path id="Path_5624" class="st4" d="M479.1,531.7c66.6,0,120.6-54.6,120.6-121.9s-54-121.9-120.6-121.9s-120.6,54.6-120.6,121.9
	S412.4,531.7,479.1,531.7"/>
<g class="st2">
	<path class="st3" d="M438.2,436.9c-8.7,0-16-5.6-16.2-14.6h6.9c0.4,4.9,4.3,7.8,9.3,7.8c4.5,0,7.9-2.5,8-6.8c0-4.7-3.5-7.1-8.6-7.1
		H434v-5.9h3.5c4.4,0,7.3-2.6,7.3-6.3c0.1-3.7-3.1-6.2-7-6.2c-4.6,0-8.2,2.8-8.2,7.6h-7c0-9,7.1-14.4,15.1-14.4
		c8.3,0,14,5.3,13.9,12.6c0,4.3-2.5,7.9-5.5,9.7c3.9,1.7,6.7,5.5,6.7,10.5C453.1,431.5,447,436.9,438.2,436.9z"/>
	<path class="st3" d="M480.2,425.1h-23v-5.6l23.8-27.8h6.2v27h6v6.4h-6v11.2h-6.9v-11.2H480.2z M480.2,402l-14.4,16.7h14.4V402z"/>
</g>
<g class="st2">
	<path class="st3" d="M501.4,391.7h7.3v19.2l17.9-19.2h9.3L516.1,413l24.2,23.3h-9.9l-21.7-20.8v20.8h-7.3L501.4,391.7L501.4,391.7z
		"/>
</g>
<g>
	<path class="st5" d="M7.3,53.9h1.7v11.2h6.2v1.6H7.3V53.9z"/>
	<path class="st5" d="M24.5,64.6c-1.3,1.6-2.5,2.3-4.1,2.3c-2.3,0-3.9-1.6-3.9-3.7c0-1.9,1.4-2.9,2.7-3.7l0.1-0.1
		c-0.8-0.7-1.5-1.7-1.5-2.9c0-1.7,1.4-2.9,3.3-2.9c1.9,0,3.2,1.4,3.2,3c0,1.6-1.2,2.5-2.5,3.1l2.7,2.7l1.5-1.9h1.8l-2.3,2.9l3.3,3.2
		h-2L24.5,64.6z M20.4,65.5c1.2,0,2-0.6,3.1-1.9l-3.2-3.1L20,60.6c-1.3,0.7-2,1.4-2,2.6C18,64.6,19.1,65.5,20.4,65.5z M20.6,58.8
		L20.6,58.8c1.1-0.6,1.9-1.1,1.9-2.1c0-1-0.6-1.7-1.7-1.7c-0.9,0-1.7,0.6-1.7,1.6C19.2,57.5,19.8,58.1,20.6,58.8z"/>
	<path class="st5" d="M30.3,53.9H34c3.9,0,6.8,2.7,6.8,6.4c0,3.7-2.9,6.4-6.8,6.4h-3.7V53.9z M34,65.1c3.1,0,5.1-2.1,5.1-4.8
		c0-2.8-2-4.8-5.1-4.8h-2v9.7H34z"/>
	<path class="st5" d="M47.4,57.7h1.5v1.4c0.6-0.9,1.8-1.6,3.2-1.6c2.5,0,4.4,2.1,4.4,4.7s-1.9,4.7-4.4,4.7c-1.4,0-2.6-0.7-3.2-1.6
		v5.1h-1.5V57.7z M51.9,58.9c-1.8,0-3.1,1.4-3.1,3.3c0,1.8,1.2,3.3,3.1,3.3c1.8,0,3.1-1.4,3.1-3.3C54.9,60.4,53.7,58.9,51.9,58.9z"
		/>
	<path class="st5" d="M58.8,57.7h1.5v1.7c0.4-1.2,1.5-1.8,2.5-1.8c0.2,0,0.5,0,0.7,0.1v1.6c-0.3-0.1-0.5-0.1-0.8-0.1
		c-1.1,0-2.4,1-2.4,3.1v4.5h-1.5V57.7z"/>
	<path class="st5" d="M69,66.9c-2.7,0-4.7-2.1-4.7-4.7s2-4.7,4.7-4.7c2.7,0,4.7,2.1,4.7,4.7S71.7,66.9,69,66.9z M69,65.4
		c1.9,0,3.1-1.4,3.1-3.2c0-1.8-1.2-3.2-3.1-3.2s-3.1,1.4-3.1,3.2C65.9,64,67.1,65.4,69,65.4z"/>
	<path class="st5" d="M76.5,59.1h-1.9v-1.4h1.9v-1.8c0-1.9,1.2-2.8,2.8-2.8c0.5,0,1,0.1,1.4,0.2v1.4c-0.3-0.1-0.8-0.2-1.1-0.2
		c-1,0-1.5,0.4-1.5,1.5v1.7h2.6v1.4h-2.6v7.6h-1.5V59.1z"/>
	<path class="st5" d="M86.1,57.5c2.4,0,4.3,1.6,4.3,4.5c0,0.2,0,0.3,0,0.5H83c0.1,1.7,1.3,3,3.1,3c1.4,0,2.3-0.6,2.8-1.6l1.2,0.8
		c-0.8,1.3-2.2,2.1-4.1,2.1c-2.8,0-4.7-2-4.7-4.7C81.5,59.6,83.4,57.5,86.1,57.5z M83.1,61.2h5.7c-0.2-1.5-1.4-2.4-2.8-2.4
		C84.7,58.9,83.4,59.7,83.1,61.2z"/>
	<path class="st5" d="M95.3,66.9c-1.6,0-3-0.7-3.5-2.1l1.3-0.7c0.3,0.9,1.3,1.4,2.3,1.4c0.9,0,1.6-0.4,1.6-1.2c0-0.6-0.4-1-1.6-1.4
		l-0.9-0.3c-1.5-0.4-2.3-1.4-2.3-2.6c0-1.5,1.4-2.5,3.1-2.5c1.3,0,2.4,0.6,3,1.6l-1.2,0.8c-0.4-0.6-1-1-1.9-1
		c-0.8,0-1.5,0.4-1.5,1.1c0,0.5,0.3,1,1.3,1.3l1,0.3c1.5,0.5,2.4,1.3,2.4,2.6C98.5,65.9,97.1,66.9,95.3,66.9z"/>
	<path class="st5" d="M103.4,66.9c-1.6,0-3-0.7-3.5-2.1l1.3-0.7c0.3,0.9,1.3,1.4,2.3,1.4c0.9,0,1.6-0.4,1.6-1.2c0-0.6-0.4-1-1.6-1.4
		l-0.9-0.3c-1.5-0.4-2.3-1.4-2.3-2.6c0-1.5,1.4-2.5,3.1-2.5c1.3,0,2.4,0.6,3,1.6l-1.2,0.8c-0.4-0.6-1-1-1.9-1
		c-0.8,0-1.5,0.4-1.5,1.1c0,0.5,0.3,1,1.3,1.3l1,0.3c1.5,0.5,2.4,1.3,2.4,2.6C106.6,65.9,105.2,66.9,103.4,66.9z"/>
	<path class="st5" d="M109.6,55.3c-0.6,0-1.1-0.5-1.1-1.1c0-0.6,0.5-1.1,1.1-1.1c0.6,0,1.1,0.5,1.1,1.1
		C110.7,54.8,110.2,55.3,109.6,55.3z M108.8,57.7h1.5v9h-1.5V57.7z"/>
	<path class="st5" d="M117.3,66.9c-2.7,0-4.7-2.1-4.7-4.7s2-4.7,4.7-4.7c2.7,0,4.7,2.1,4.7,4.7S120,66.9,117.3,66.9z M117.3,65.4
		c1.9,0,3.1-1.4,3.1-3.2c0-1.8-1.2-3.2-3.1-3.2s-3.1,1.4-3.1,3.2C114.2,64,115.4,65.4,117.3,65.4z"/>
	<path class="st5" d="M124.2,57.7h1.5v1.4c0.6-1.1,1.7-1.6,2.9-1.6c2,0,3.4,1.4,3.4,3.6v5.5h-1.5v-5.3c0-1.5-0.9-2.4-2.1-2.4
		c-1.5,0-2.6,1.2-2.6,3.3v4.5h-1.5V57.7z"/>
	<path class="st5" d="M138.5,57.5c1.4,0,2.6,0.7,3.2,1.6v-1.4h1.5v9h-1.5v-1.4c-0.6,0.9-1.8,1.6-3.2,1.6c-2.5,0-4.4-2.1-4.4-4.7
		S136,57.5,138.5,57.5z M138.7,58.9c-1.8,0-3.1,1.4-3.1,3.3c0,1.8,1.3,3.3,3.1,3.3c1.8,0,3.1-1.4,3.1-3.3
		C141.8,60.4,140.6,58.9,138.7,58.9z"/>
	<path class="st5" d="M146.1,53.2h1.5v13.5h-1.5V53.2z"/>
	<path class="st5" d="M153.3,66.9c-1.6,0-3-0.7-3.5-2.1l1.3-0.7c0.3,0.9,1.3,1.4,2.3,1.4c0.9,0,1.6-0.4,1.6-1.2c0-0.6-0.4-1-1.6-1.4
		l-0.9-0.3c-1.5-0.4-2.3-1.4-2.3-2.6c0-1.5,1.4-2.5,3.1-2.5c1.3,0,2.4,0.6,3,1.6l-1.2,0.8c-0.4-0.6-1-1-1.9-1
		c-0.8,0-1.5,0.4-1.5,1.1c0,0.5,0.3,1,1.3,1.3l1,0.3c1.5,0.5,2.4,1.3,2.4,2.6C156.5,65.9,155.1,66.9,153.3,66.9z"/>
	<path class="st5" d="M5.7,79.3h1.7l3.1,6.8l3.1-6.8h1.7l-4.2,9H9.8L5.7,79.3z"/>
	<path class="st5" d="M17.6,76.9c-0.6,0-1.1-0.5-1.1-1.1c0-0.6,0.5-1.1,1.1-1.1c0.6,0,1.1,0.5,1.1,1.1
		C18.7,76.4,18.3,76.9,17.6,76.9z M16.9,79.3h1.5v9h-1.5V79.3z"/>
	<path class="st5" d="M24.1,88.5c-1.6,0-3-0.7-3.5-2.1l1.3-0.7c0.3,0.9,1.3,1.4,2.3,1.4c0.9,0,1.6-0.4,1.6-1.2c0-0.6-0.4-1-1.6-1.4
		l-0.9-0.3c-1.5-0.4-2.3-1.4-2.3-2.6c0-1.5,1.4-2.5,3.1-2.5c1.3,0,2.4,0.6,3,1.6l-1.2,0.8c-0.4-0.6-1-1-1.9-1
		c-0.8,0-1.5,0.4-1.5,1.1c0,0.5,0.3,1,1.3,1.3l1,0.3c1.5,0.5,2.4,1.3,2.4,2.6C27.2,87.5,25.9,88.5,24.1,88.5z"/>
	<path class="st5" d="M30.2,76.9c-0.6,0-1.1-0.5-1.1-1.1c0-0.6,0.5-1.1,1.1-1.1c0.6,0,1.1,0.5,1.1,1.1
		C31.3,76.4,30.8,76.9,30.2,76.9z M29.4,79.3H31v9h-1.5V79.3z"/>
	<path class="st5" d="M37.4,88.4c-1.6,0-2.8-0.9-2.8-2.8v-4.9h-1.9v-1.4h1.9v-2.5h1.5v2.5h2.6v1.4h-2.6v4.7c0,1.2,0.5,1.5,1.5,1.5
		c0.4,0,0.8-0.1,1.1-0.2v1.4C38.4,88.3,38,88.4,37.4,88.4z"/>
	<path class="st5" d="M49.1,88.5c-2.7,0-4.7-2.1-4.7-4.7s2-4.7,4.7-4.7c2.7,0,4.7,2.1,4.7,4.7S51.8,88.5,49.1,88.5z M49.1,87
		c1.9,0,3.1-1.4,3.1-3.2c0-1.8-1.2-3.2-3.1-3.2S46,82,46,83.8C46,85.6,47.2,87,49.1,87z"/>
	<path class="st5" d="M55.9,79.3h1.5v5.3c0,1.5,0.8,2.5,2,2.5c1.4,0,2.5-1.2,2.5-3.3v-4.5h1.5v9H62v-1.4c-0.6,1-1.6,1.6-2.8,1.6
		c-2,0-3.3-1.4-3.3-3.7V79.3z"/>
	<path class="st5" d="M66.4,79.3H68V81c0.4-1.2,1.5-1.8,2.5-1.8c0.2,0,0.5,0,0.7,0.1v1.6c-0.3-0.1-0.5-0.1-0.8-0.1
		c-1.1,0-2.4,1-2.4,3.1v4.5h-1.5V79.3z"/>
	<path class="st5" d="M76.9,79.3h1.5v1.4c0.6-0.9,1.8-1.6,3.2-1.6c2.5,0,4.4,2.1,4.4,4.7s-1.9,4.7-4.4,4.7c-1.4,0-2.6-0.7-3.2-1.6
		v5.1h-1.5V79.3z M81.4,80.5c-1.8,0-3.1,1.4-3.1,3.3c0,1.8,1.2,3.3,3.1,3.3c1.8,0,3.1-1.4,3.1-3.3C84.5,82,83.2,80.5,81.4,80.5z"/>
	<path class="st5" d="M88.3,74.8h1.5v13.5h-1.5V74.8z"/>
	<path class="st5" d="M96.5,79.1c1.4,0,2.6,0.7,3.2,1.6v-1.4h1.5v9h-1.5v-1.4c-0.6,0.9-1.8,1.6-3.2,1.6c-2.5,0-4.4-2.1-4.4-4.7
		S93.9,79.1,96.5,79.1z M96.7,80.5c-1.8,0-3.1,1.4-3.1,3.3c0,1.8,1.3,3.3,3.1,3.3c1.8,0,3.1-1.4,3.1-3.3
		C99.8,82,98.5,80.5,96.7,80.5z"/>
	<path class="st5" d="M107.6,88.4c-1.6,0-2.8-0.9-2.8-2.8v-4.9h-1.9v-1.4h1.9v-2.5h1.5v2.5h2.6v1.4h-2.6v4.7c0,1.2,0.5,1.5,1.5,1.5
		c0.4,0,0.8-0.1,1.1-0.2v1.4C108.6,88.3,108.1,88.4,107.6,88.4z"/>
	<path class="st5" d="M111.7,80.7h-1.9v-1.4h1.9v-1.8c0-1.9,1.2-2.8,2.8-2.8c0.5,0,1,0.1,1.4,0.2v1.4c-0.3-0.1-0.8-0.2-1.1-0.2
		c-1,0-1.5,0.4-1.5,1.5v1.7h2.6v1.4h-2.6v7.6h-1.5V80.7z"/>
	<path class="st5" d="M121.3,88.5c-2.7,0-4.7-2.1-4.7-4.7s2-4.7,4.7-4.7c2.7,0,4.7,2.1,4.7,4.7S124,88.5,121.3,88.5z M121.3,87
		c1.9,0,3.1-1.4,3.1-3.2c0-1.8-1.2-3.2-3.1-3.2s-3.1,1.4-3.1,3.2C118.2,85.6,119.5,87,121.3,87z"/>
	<path class="st5" d="M128.2,79.3h1.5V81c0.4-1.2,1.5-1.8,2.5-1.8c0.2,0,0.4,0,0.7,0.1v1.6c-0.3-0.1-0.5-0.1-0.8-0.1
		c-1.1,0-2.4,1-2.4,3.1v4.5h-1.5V79.3z"/>
	<path class="st5" d="M134.8,79.3h1.5v1.4c0.5-1,1.5-1.6,2.7-1.6c1.4,0,2.3,0.7,2.8,1.9c0.5-1.2,1.6-1.9,3-1.9c2,0,3.2,1.5,3.2,3.7
		v5.5h-1.5V83c0-1.5-0.6-2.5-1.8-2.5c-1.5,0-2.5,1.3-2.5,3.3v4.5h-1.5V83c0-1.5-0.6-2.5-1.8-2.5c-1.5,0-2.5,1.3-2.5,3.3v4.5h-1.5
		V79.3z"/>
	<path class="st5" d="M11,100.7c2.4,0,4.3,1.6,4.3,4.5c0,0.2,0,0.3,0,0.5H7.9c0.1,1.7,1.3,3,3.1,3c1.4,0,2.3-0.6,2.8-1.6l1.2,0.8
		c-0.8,1.3-2.2,2.1-4.1,2.1c-2.8,0-4.7-2-4.7-4.7C6.3,102.8,8.3,100.7,11,100.7z M8,104.4h5.7c-0.2-1.5-1.4-2.4-2.8-2.4
		C9.6,102.1,8.3,102.9,8,104.4z"/>
	<path class="st5" d="M21.2,100.7c1.4,0,2.6,0.7,3.2,1.6v-1.4h1.5v9h-1.5v-1.4c-0.6,0.9-1.8,1.6-3.2,1.6c-2.5,0-4.4-2.1-4.4-4.7
		S18.7,100.7,21.2,100.7z M21.4,102.1c-1.8,0-3.1,1.4-3.1,3.3c0,1.8,1.3,3.3,3.1,3.3c1.8,0,3.1-1.4,3.1-3.3
		C24.5,103.6,23.2,102.1,21.4,102.1z"/>
	<path class="st5" d="M32.8,110.1c-2.7,0-4.7-2.1-4.7-4.7s2-4.7,4.7-4.7c1.9,0,3.4,1,4.2,2.4l-1.4,0.8c-0.5-1-1.5-1.7-2.8-1.7
		c-1.9,0-3.2,1.4-3.2,3.2c0,1.8,1.3,3.2,3.2,3.2c1.3,0,2.3-0.7,2.8-1.7l1.4,0.8C36.2,109.1,34.7,110.1,32.8,110.1z"/>
	<path class="st5" d="M39,96.4h1.5v5.9c0.6-1.1,1.7-1.6,2.9-1.6c2,0,3.4,1.4,3.4,3.6v5.5h-1.5v-5.3c0-1.5-0.9-2.4-2.1-2.4
		c-1.5,0-2.6,1.2-2.6,3.3v4.5H39V96.4z"/>
	<path class="st5" d="M53.9,100.9h1.5v1.4c0.5-1,1.5-1.6,2.7-1.6c1.4,0,2.3,0.7,2.8,1.9c0.5-1.2,1.6-1.9,3-1.9c2,0,3.2,1.5,3.2,3.7
		v5.5h-1.5v-5.3c0-1.5-0.6-2.5-1.8-2.5c-1.5,0-2.5,1.3-2.5,3.3v4.5h-1.5v-5.3c0-1.5-0.6-2.5-1.8-2.5c-1.5,0-2.5,1.3-2.5,3.3v4.5
		h-1.5V100.9z"/>
	<path class="st5" d="M73.9,110.1c-2.7,0-4.7-2.1-4.7-4.7s2-4.7,4.7-4.7c2.7,0,4.7,2.1,4.7,4.7S76.6,110.1,73.9,110.1z M73.9,108.6
		c1.9,0,3.1-1.4,3.1-3.2c0-1.8-1.2-3.2-3.1-3.2s-3.1,1.4-3.1,3.2C70.7,107.2,72,108.6,73.9,108.6z"/>
	<path class="st5" d="M80.8,100.9h1.5v1.4c0.6-1.1,1.7-1.6,2.9-1.6c2,0,3.4,1.4,3.4,3.6v5.5h-1.5v-5.3c0-1.5-0.9-2.4-2.1-2.4
		c-1.5,0-2.6,1.2-2.6,3.3v4.5h-1.5V100.9z"/>
	<path class="st5" d="M94.8,110c-1.6,0-2.8-0.9-2.8-2.8v-4.9h-1.9v-1.4H92v-2.5h1.5v2.5h2.6v1.4h-2.6v4.7c0,1.2,0.5,1.5,1.5,1.5
		c0.4,0,0.8-0.1,1.1-0.2v1.4C95.8,109.9,95.3,110,94.8,110z"/>
	<path class="st5" d="M98.1,96.4h1.5v5.9c0.6-1.1,1.7-1.6,2.9-1.6c2,0,3.4,1.4,3.4,3.6v5.5h-1.5v-5.3c0-1.5-0.9-2.4-2.1-2.4
		c-1.5,0-2.6,1.2-2.6,3.3v4.5h-1.5V96.4z"/>
</g>
</svg>
